<?xml version="1.0" standalone="no"?><svg xmlns="http://www.w3.org/2000/svg" viewBox="0 0 1440 320"><path fill="#e8505b" fill-opacity="1" d="M0,224L26.7,208C53.3,192,107,160,160,144C213.3,128,267,128,320,149.3C373.3,171,427,213,480,213.3C533.3,213,587,171,640,138.7C693.3,107,747,85,800,74.7C853.3,64,907,64,960,101.3C1013.3,139,1067,213,1120,224C1173.3,235,1227,181,1280,176C1333.3,171,1387,213,1413,234.7L1440,256L1440,320L1413.3,320C1386.7,320,1333,320,1280,320C1226.7,320,1173,320,1120,320C1066.7,320,1013,320,960,320C906.7,320,853,320,800,320C746.7,320,693,320,640,320C586.7,320,533,320,480,320C426.7,320,373,320,320,320C266.7,320,213,320,160,320C106.7,320,53,320,27,320L0,320Z"></path></svg>